<svg width="154" height="74" viewBox="0 0 154 74" fill="none" xmlns="http://www.w3.org/2000/svg">
<g id="LOGO">
<path id="Vector 10" d="M117.01 69.8325L117.14 17.995C117.142 16.8924 118.037 16 119.14 16H151C152.105 16 153 16.8954 153 18V25.5463C153 26.6509 152.105 27.5463 151 27.5463H133.169C132.064 27.5463 131.169 28.4417 131.169 29.5463V36.8241C131.169 37.9286 132.064 38.8241 133.169 38.8241H149.12C150.225 38.8241 151.12 39.7195 151.12 40.8241V48.5046C151.12 49.6092 150.225 50.5046 149.12 50.5046H133.169C132.064 50.5046 131.169 51.4001 131.169 52.5046V55.1517C131.169 55.6993 130.939 56.218 130.57 56.6225C127.835 59.6195 125.511 64.7542 125.241 65.0046C125.031 65.1995 122.677 68.3397 120.029 71.1427C118.877 72.3626 117.006 71.5106 117.01 69.8325Z" fill="#FF914D" stroke="#FF914D"/>
<g id="Subtract">
<path fill-rule="evenodd" clip-rule="evenodd" d="M95.5774 58.6057C112.935 58.6057 127.005 45.7102 127.005 29.8029C127.005 13.8955 112.935 1 95.5774 1C78.2202 1 64.1494 13.8955 64.1494 29.8029C64.1494 40.1864 70.1448 49.2867 79.136 54.3547C78.0172 53.3657 78.373 51.2533 79.7427 50.4253C81.7715 49.1989 83.435 47.7187 84.6043 46.6784C85.3294 46.0331 85.8644 45.5571 86.1785 45.4157C86.4092 45.3118 86.8408 45.3806 87.4105 45.549C82.1331 42.6499 78.5418 36.9272 78.5418 30.3412C78.5418 20.8265 86.0375 13.1133 95.2838 13.1133C104.53 13.1133 112.026 20.8265 112.026 30.3412C112.026 39.8559 104.53 47.5691 95.2838 47.5691C94.3472 47.5691 93.4286 47.49 92.5339 47.3378C94.0543 47.7767 95.5715 48.0275 96.7524 47.7038C98.5182 47.2197 98.6603 49.3389 98.8308 51.883C98.8798 52.6124 98.931 53.3769 99.0236 54.1249C99.2352 55.8354 97.8574 58.3755 96.134 58.4019C92.7026 58.4546 89.7731 58.2073 86.8975 57.4932C89.6544 58.2177 92.5665 58.6057 95.5774 58.6057Z" fill="#85C06E"/>
<path d="M79.136 54.3547L78.8905 54.7903L79.4672 53.9801L79.136 54.3547ZM79.7427 50.4253L79.4841 49.9974L79.7427 50.4253ZM84.6043 46.6784L84.9366 47.0519V47.0519L84.6043 46.6784ZM86.1785 45.4157L85.9732 44.9597L85.9732 44.9598L86.1785 45.4157ZM87.4105 45.549L87.2687 46.0285L87.6512 45.1108L87.4105 45.549ZM92.5339 47.3378L92.6177 46.8449L92.3952 47.8182L92.5339 47.3378ZM96.7524 47.7038L96.8846 48.186L96.7524 47.7038ZM98.8308 51.883L99.3297 51.8495L98.8308 51.883ZM99.0236 54.1249L99.5198 54.0635L99.0236 54.1249ZM96.134 58.4019L96.1263 57.902L96.134 58.4019ZM86.8975 57.4932L87.018 57.0079L86.7705 57.9767L86.8975 57.4932ZM126.505 29.8029C126.505 45.3939 112.7 58.1057 95.5774 58.1057V59.1057C113.169 59.1057 127.505 46.0265 127.505 29.8029H126.505ZM95.5774 1.5C112.7 1.5 126.505 14.2118 126.505 29.8029H127.505C127.505 13.5792 113.169 0.5 95.5774 0.5V1.5ZM64.6494 29.8029C64.6494 14.2118 78.4544 1.5 95.5774 1.5V0.5C77.986 0.5 63.6494 13.5792 63.6494 29.8029H64.6494ZM79.3816 53.9191C70.5277 48.9286 64.6494 39.9843 64.6494 29.8029H63.6494C63.6494 40.3886 69.7618 49.6448 78.8905 54.7903L79.3816 53.9191ZM79.4841 49.9974C78.6556 50.4982 78.1524 51.3721 78.0124 52.251C77.8727 53.1281 78.0853 54.0932 78.8049 54.7293L79.4672 53.9801C79.068 53.6272 78.8991 53.0416 79 52.4083C79.1006 51.7767 79.4601 51.1804 80.0014 50.8532L79.4841 49.9974ZM84.2719 46.3048C83.1012 47.3465 81.4687 48.7977 79.4841 49.9974L80.0014 50.8532C82.0743 49.6002 83.7689 48.0909 84.9366 47.0519L84.2719 46.3048ZM85.9732 44.9598C85.7476 45.0613 85.4884 45.2572 85.2275 45.4723C84.9549 45.6969 84.632 45.9844 84.2719 46.3048L84.9366 47.0519C85.3017 46.7271 85.6088 46.4539 85.8636 46.2439C86.1299 46.0243 86.2953 45.9114 86.3838 45.8716L85.9732 44.9598ZM87.5523 45.0696C87.2564 44.9821 86.9757 44.914 86.7277 44.8839C86.4952 44.8556 86.2166 44.8502 85.9732 44.9597L86.3838 45.8716C86.3711 45.8773 86.4237 45.8543 86.6071 45.8766C86.775 45.897 86.995 45.9476 87.2687 46.0285L87.5523 45.0696ZM78.0418 30.3412C78.0418 37.1117 81.7343 43.0013 87.1698 45.9873L87.6512 45.1108C82.5319 42.2985 79.0418 36.7426 79.0418 30.3412H78.0418ZM95.2838 12.6133C85.7479 12.6133 78.0418 20.564 78.0418 30.3412H79.0418C79.0418 21.0891 86.327 13.6133 95.2838 13.6133V12.6133ZM112.526 30.3412C112.526 20.564 104.82 12.6133 95.2838 12.6133V13.6133C104.241 13.6133 111.526 21.0891 111.526 30.3412H112.526ZM95.2838 48.0691C104.82 48.0691 112.526 40.1185 112.526 30.3412H111.526C111.526 39.5934 104.241 47.0691 95.2838 47.0691V48.0691ZM92.4501 47.8307C93.3723 47.9876 94.319 48.0691 95.2838 48.0691V47.0691C94.3754 47.0691 93.4848 46.9924 92.6177 46.8449L92.4501 47.8307ZM96.6202 47.2215C95.583 47.5059 94.1832 47.2935 92.6725 46.8574L92.3952 47.8182C93.9255 48.2599 95.5599 48.5491 96.8846 48.186L96.6202 47.2215ZM99.3297 51.8495C99.2464 50.6071 99.1671 49.3589 98.8614 48.4915C98.7058 48.0504 98.467 47.6311 98.069 47.3745C97.6525 47.1061 97.156 47.0746 96.6202 47.2215L96.8846 48.186C97.2317 48.0908 97.4151 48.1428 97.5272 48.215C97.6578 48.2992 97.7962 48.4779 97.9183 48.824C98.1676 49.5313 98.2447 50.6147 98.332 51.9164L99.3297 51.8495ZM99.5198 54.0635C99.4293 53.3317 99.3788 52.5813 99.3297 51.8495L98.332 51.9164C98.3807 52.6435 98.4328 53.422 98.5274 54.1863L99.5198 54.0635ZM96.1416 58.9019C97.2518 58.8848 98.1568 58.0731 98.7282 57.1602C99.3069 56.2359 99.643 55.0591 99.5198 54.0635L98.5274 54.1863C98.6158 54.9012 98.3688 55.8497 97.8806 56.6296C97.3852 57.421 96.7396 57.8926 96.1263 57.902L96.1416 58.9019ZM86.777 57.9784C89.7061 58.7058 92.681 58.955 96.1416 58.9019L96.1263 57.902C92.7242 57.9542 89.84 57.7087 87.018 57.0079L86.777 57.9784ZM95.5774 58.1057C92.6095 58.1057 89.7402 57.7232 87.0246 57.0096L86.7705 57.9767C89.5687 58.7121 92.5234 59.1057 95.5774 59.1057V58.1057Z" fill="white"/>
</g>
<g id="Union">
<path fill-rule="evenodd" clip-rule="evenodd" d="M33 62.6104V15.7754C33 15.5133 33.2105 15.2887 33.4934 15.2454C44.9419 13.4942 51.5205 13.6569 63.0929 15.3129C63.1327 15.3186 63.1734 15.3284 63.211 15.3415C69.3388 17.4649 71.8047 19.929 74.5935 24.6743C74.6153 24.7114 74.6327 24.752 74.6444 24.7927C76.3013 30.5649 76.6923 33.913 74.6466 40.261C74.6335 40.3016 74.6145 40.3422 74.5913 40.3788C71.5962 45.1136 69.364 47.3188 64.0472 48.9359C63.6361 49.061 63.4922 49.533 63.7845 49.8253L77.8448 63.8862C78.1899 64.2313 77.922 64.7866 77.4105 64.7866H61.803C61.6331 64.7866 61.4714 64.7194 61.3597 64.6024L48.4465 51.0811C48.089 50.7068 47.4149 50.9378 47.4149 51.4346V62.4335C47.4149 62.8886 46.8226 63.1466 46.4027 62.902C41.6656 60.1429 36.0921 62.1397 33.926 63.1194C33.5125 63.3063 33 63.0319 33 62.6104ZM46.9736 39.6678V25.4846C46.9736 25.209 47.2024 24.9777 47.5025 24.9509C50.9767 24.641 53.3323 24.6414 56.8287 25.6717C59.3821 26.7481 60.4762 27.9633 61.0843 32.4527C61.0909 32.501 61.0901 32.5521 61.082 32.6002C60.5686 35.6454 59.7202 37.1718 56.9149 39.3164C56.8586 39.3594 56.7925 39.3931 56.7228 39.4138C53.9843 40.2279 51.7114 40.3145 47.5446 40.2045C47.2271 40.1961 46.9736 39.958 46.9736 39.6678Z" fill="#EDB96A"/>
<path d="M34.8952 65.8552L39.9674 73.7349C40.2009 74.0976 40.7791 74.0858 40.9946 73.7139L45.5579 65.837C45.695 65.6004 45.6208 65.3067 45.3804 65.1537C41.5067 62.6877 39.0973 62.7012 35.0713 65.1437C34.8145 65.2995 34.7389 65.6124 34.8952 65.8552Z" fill="#454545"/>
<path fill-rule="evenodd" clip-rule="evenodd" d="M33 62.6104V15.7754C33 15.5133 33.2105 15.2887 33.4934 15.2454C44.9419 13.4942 51.5205 13.6569 63.0929 15.3129C63.1327 15.3186 63.1734 15.3284 63.211 15.3415C69.3388 17.4649 71.8047 19.929 74.5935 24.6743C74.6153 24.7114 74.6327 24.752 74.6444 24.7927C76.3013 30.5649 76.6923 33.913 74.6466 40.261C74.6335 40.3016 74.6145 40.3422 74.5913 40.3788C71.5962 45.1136 69.364 47.3188 64.0472 48.9359C63.6361 49.061 63.4922 49.533 63.7845 49.8253L77.8448 63.8862C78.1899 64.2313 77.922 64.7866 77.4105 64.7866H61.803C61.6331 64.7866 61.4714 64.7194 61.3597 64.6024L48.4465 51.0811C48.089 50.7068 47.4149 50.9378 47.4149 51.4346V62.4335C47.4149 62.8886 46.8226 63.1466 46.4027 62.902C41.6656 60.1429 36.0921 62.1397 33.926 63.1194C33.5125 63.3063 33 63.0319 33 62.6104ZM46.9736 39.6678V25.4846C46.9736 25.209 47.2024 24.9777 47.5025 24.9509C50.9767 24.641 53.3323 24.6414 56.8287 25.6717C59.3821 26.7481 60.4762 27.9633 61.0843 32.4527C61.0909 32.501 61.0901 32.5521 61.082 32.6002C60.5686 35.6454 59.7202 37.1718 56.9149 39.3164C56.8586 39.3594 56.7925 39.3931 56.7228 39.4138C53.9843 40.2279 51.7114 40.3145 47.5446 40.2045C47.2271 40.1961 46.9736 39.958 46.9736 39.6678Z" stroke="#EDB96A"/>
<path d="M34.8952 65.8552L39.9674 73.7349C40.2009 74.0976 40.7791 74.0858 40.9946 73.7139L45.5579 65.837C45.695 65.6004 45.6208 65.3067 45.3804 65.1537C41.5067 62.6877 39.0973 62.7012 35.0713 65.1437C34.8145 65.2995 34.7389 65.6124 34.8952 65.8552Z" stroke="#EDB96A"/>
</g>
<g id="Exclude">
<path fill-rule="evenodd" clip-rule="evenodd" d="M1 9.80615V57.5654C1 58.1093 1.43668 58.5537 1.98045 58.5648C7.7706 58.6824 11.255 58.6443 14.7789 57.0573C15.1252 56.9014 15.3398 56.5516 15.3398 56.1718V45.5258C15.3398 44.9735 15.7875 44.5258 16.3398 44.5258H27.9615C28.0226 44.5258 28.085 44.52 28.1451 44.5088C39.9425 42.3102 44.9064 38.9898 45.6454 27.9465C44.8742 15.4797 41.2884 11.0757 28.1383 8.82067C28.0829 8.81117 28.0251 8.80615 27.9688 8.80615H2C1.44772 8.80615 1 9.25387 1 9.80615ZM17.2903 19.092C16.2263 19.1205 15.3922 20.0045 15.3922 21.0688V32.3634C15.3922 33.474 16.2971 34.3745 17.4075 34.353C21.693 34.2699 24.0055 33.999 26.2476 33.0979C26.3536 33.0553 26.4571 33.0011 26.5532 32.9393C29.704 30.9122 30.2609 29.6036 30.4943 27.3613C30.5116 27.1952 30.5056 27.0264 30.4784 26.8617C29.9308 23.5474 29.2598 21.8969 26.5528 20.4576C26.4567 20.4065 26.3534 20.3638 26.2497 20.3307C22.8667 19.252 20.5963 19.0033 17.2903 19.092Z" fill="#0097B2"/>
<path d="M1.98045 58.5648L1.9906 58.0649H1.9906L1.98045 58.5648ZM14.7789 57.0573L14.9842 57.5132H14.9842L14.7789 57.0573ZM28.1451 44.5088L28.2367 45.0003H28.2367L28.1451 44.5088ZM45.6454 27.9465L46.1443 27.9799L46.1464 27.9478L46.1445 27.9156L45.6454 27.9465ZM28.1383 8.82067L28.0538 9.31348V9.31348L28.1383 8.82067ZM26.5528 20.4576L26.7876 20.0161L26.5528 20.4576ZM26.2497 20.3307L26.4016 19.8544L26.2497 20.3307ZM30.4943 27.3613L30.9916 27.413L30.4943 27.3613ZM30.4784 26.8617L29.9851 26.9432L30.4784 26.8617ZM26.2476 33.0979L26.4341 33.5618L26.2476 33.0979ZM26.5532 32.9393L26.2827 32.5188L26.5532 32.9393ZM17.4075 34.353L17.4172 34.8529L17.4075 34.353ZM1.5 57.5654V9.80615H0.5V57.5654H1.5ZM1.9906 58.0649C1.71816 58.0593 1.5 57.8363 1.5 57.5654H0.5C0.5 58.3823 1.1552 59.0481 1.97029 59.0647L1.9906 58.0649ZM14.5736 56.6014C11.168 58.1351 7.79664 58.1828 1.9906 58.0649L1.97029 59.0647C7.74456 59.182 11.342 59.1535 14.9842 57.5132L14.5736 56.6014ZM14.8398 56.1718C14.8398 56.3655 14.731 56.5305 14.5736 56.6014L14.9842 57.5132C15.5193 57.2722 15.8398 56.7377 15.8398 56.1718H14.8398ZM14.8398 45.5258V56.1718H15.8398V45.5258H14.8398ZM16.3398 44.0258C15.5113 44.0258 14.8398 44.6974 14.8398 45.5258H15.8398C15.8398 45.2497 16.0636 45.0258 16.3398 45.0258V44.0258ZM27.9615 44.0258H16.3398V45.0258H27.9615V44.0258ZM28.0535 44.0172C28.0232 44.0229 27.9914 44.0258 27.9615 44.0258V45.0258C28.0538 45.0258 28.1469 45.017 28.2367 45.0003L28.0535 44.0172ZM45.1465 27.9131C44.7817 33.3654 43.3819 36.8058 40.7108 39.17C38.0126 41.5581 33.9423 42.9198 28.0535 44.0172L28.2367 45.0003C34.1453 43.8992 38.4557 42.5014 41.3736 39.9188C44.3185 37.3123 45.7702 33.5709 46.1443 27.9799L45.1465 27.9131ZM28.0538 9.31348C34.603 10.4366 38.6427 12.078 41.1616 14.8879C43.6799 17.6971 44.7622 21.7675 45.1464 27.9774L46.1445 27.9156C45.7574 21.6587 44.6613 17.2937 41.9062 14.2204C39.1519 11.1479 34.8236 9.4598 28.2228 8.32787L28.0538 9.31348ZM27.9688 9.30615C27.9962 9.30615 28.0258 9.30867 28.0538 9.31348L28.2228 8.32787C28.14 8.31366 28.0539 8.30615 27.9688 8.30615V9.30615ZM2 9.30615H27.9688V8.30615H2V9.30615ZM1.5 9.80615C1.5 9.53001 1.72386 9.30615 2 9.30615V8.30615C1.17157 8.30615 0.5 8.97773 0.5 9.80615H1.5ZM15.8922 32.3634V21.0688H14.8922V32.3634H15.8922ZM26.0612 32.634C23.9088 33.499 21.6744 33.7701 17.3978 33.8531L17.4172 34.8529C21.7117 34.7696 24.1022 34.4991 26.4341 33.5618L26.0612 32.634ZM29.997 27.3095C29.8835 28.3999 29.6975 29.1946 29.1992 29.9576C28.6935 30.7317 27.8353 31.5199 26.2827 32.5188L26.8237 33.3598C28.4219 32.3316 29.4175 31.4519 30.0364 30.5044C30.6626 29.5457 30.8717 28.565 30.9916 27.413L29.997 27.3095ZM26.3181 20.8991C27.611 21.5865 28.3748 22.2996 28.8911 23.2043C29.4184 24.1283 29.7125 25.2932 29.9851 26.9432L30.9717 26.7802C30.6967 25.116 30.3815 23.7984 29.7596 22.7087C29.1268 21.5998 28.2016 20.768 26.7876 20.0161L26.3181 20.8991ZM17.3037 19.5918C20.5601 19.5044 22.774 19.7472 26.0978 20.8071L26.4016 19.8544C22.9594 18.7567 20.6325 18.5021 17.2769 18.5922L17.3037 19.5918ZM26.7876 20.0161C26.663 19.9499 26.5317 19.8959 26.4016 19.8544L26.0978 20.8071C26.1752 20.8318 26.2505 20.8631 26.3181 20.8991L26.7876 20.0161ZM30.9916 27.413C31.0137 27.2007 31.0058 26.987 30.9717 26.7802L29.9851 26.9432C30.0053 27.0658 30.0095 27.1898 29.997 27.3095L30.9916 27.413ZM26.4341 33.5618C26.5711 33.5068 26.7026 33.4377 26.8237 33.3598L26.2827 32.5188C26.2116 32.5646 26.1362 32.6038 26.0612 32.634L26.4341 33.5618ZM15.8922 21.0688C15.8922 20.2665 16.5194 19.6128 17.3037 19.5918L17.2769 18.5922C15.9332 18.6282 14.8922 19.7425 14.8922 21.0688H15.8922ZM14.8922 32.3634C14.8922 33.7496 16.0226 34.8799 17.4172 34.8529L17.3978 33.8531C16.5716 33.8691 15.8922 33.1983 15.8922 32.3634H14.8922Z" fill="#0097B2"/>
</g>
</g>
</svg>
