<svg width="19" height="19" viewBox="0 0 19 19" fill="none" xmlns="http://www.w3.org/2000/svg">
<g id="Black">
<path id="Vector" d="M4.26482 0.042448C2.17638 0.397848 0.520279 1.99899 0.0659508 4.10209C0.00366394 4.38055 0 4.75793 0 9.36716C0 13.9764 0.00366394 14.3538 0.0659508 14.6322C0.282123 15.6471 0.754771 16.5155 1.48389 17.2446C2.21302 17.9737 3.08137 18.4464 4.09628 18.6626C4.37474 18.7249 4.75212 18.7285 9.36135 18.7285C13.9706 18.7285 14.348 18.7249 14.6264 18.6626C15.6413 18.4464 16.5097 17.9737 17.2388 17.2446C17.9679 16.5155 18.4406 15.6471 18.6568 14.6322C18.719 14.3538 18.7227 13.9764 18.7227 9.36716C18.7227 4.75793 18.719 4.38055 18.6568 4.10209C18.4406 3.08718 17.9679 2.21882 17.2388 1.4897C16.5243 0.775234 15.7073 0.328234 14.6557 0.0717583C14.4212 0.0131359 13.9706 0.00947189 9.47127 0.00214386C5.59116 -0.00518417 4.48466 0.00580788 4.26482 0.042448ZM15.1687 2.42401C15.9528 2.62918 16.4657 3.39128 16.3265 4.15338C16.2239 4.73228 15.8392 5.17928 15.2786 5.37714C14.9489 5.49072 14.5202 5.46507 14.1868 5.30752C13.4796 4.97777 13.1169 4.1717 13.3514 3.45723C13.6115 2.68048 14.4066 2.22615 15.1687 2.42401ZM10.3506 4.34757C12.3988 4.76526 13.9449 6.31144 14.3846 8.38156C14.5019 8.92383 14.5019 9.8105 14.3846 10.3528C13.9449 12.4265 12.4207 13.9507 10.347 14.3904C9.80469 14.5077 8.91802 14.5077 8.37576 14.3904C6.30197 13.9507 4.77777 12.4265 4.3381 10.3528C4.22085 9.8105 4.22085 8.92383 4.3381 8.38156C4.81075 6.16855 6.55112 4.55641 8.78245 4.27429C9.17816 4.22666 9.92194 4.25964 10.3506 4.34757Z" fill="white"/>
<path id="Vector_2" d="M14.6118 3.48999C14.5458 3.52296 14.4579 3.60357 14.4176 3.66952C14.1611 4.08354 14.6447 4.56718 15.0588 4.31071C15.187 4.2301 15.2969 4.04324 15.2969 3.90035C15.2969 3.69883 15.0221 3.43136 14.8206 3.43136C14.7693 3.43136 14.674 3.46068 14.6118 3.48999Z" fill="white"/>
<path id="Vector_3" d="M8.94006 5.33662C7.36091 5.49783 6.01624 6.58602 5.50329 8.12121C5.25048 8.87598 5.25781 9.89455 5.52161 10.6676C5.93197 11.8694 6.89192 12.8147 8.11568 13.2251C8.8448 13.4706 9.87803 13.4706 10.6072 13.2251C12.0178 12.7524 13.029 11.6203 13.3368 10.1547C13.4211 9.75898 13.4211 8.9749 13.3368 8.5792C13.029 7.11362 12.0178 5.98147 10.6072 5.50882C10.1492 5.35493 9.45668 5.28532 8.94006 5.33662Z" fill="white"/>
</g>
</svg>
