<svg width="37" height="79" viewBox="0 0 37 79" fill="none" xmlns="http://www.w3.org/2000/svg">
<g id="tform_logovetor">
<path id="Vector 2" d="M20.8219 15.1477C17.67 16.8014 14.9541 16.5883 11.8274 14.8975C10.3746 14.1118 8.47415 15.052 8.47415 16.7037V27.734C8.47415 28.8385 7.57872 29.734 6.47415 29.734H3C1.89543 29.734 1 30.6294 1 31.734V40.1711C1 41.2757 1.89543 42.1711 3 42.1711H6.47681C7.58034 42.1711 8.47534 43.0649 8.47681 44.1685L8.50318 63.9878C8.5033 64.0822 8.51027 64.1766 8.52311 64.2701C8.77907 66.1346 8.77169 67.7247 10.4177 70.5048C13.4645 75.6508 16.9375 77.9311 24.3567 78.0001C26.7425 77.8914 28.615 77.963 30.7063 77.5822C32.2518 77.3007 32.5147 75.338 31.5132 74.1277C29.5264 71.7268 29.0954 69.1802 29.5971 66.5654C29.8757 65.1135 28.8058 63.6883 27.3707 63.333C25.5547 62.8834 24.5284 61.6391 24.3567 58.8089V44.1711C24.3567 43.0666 25.2522 42.1711 26.3567 42.1711H33.2282C34.3328 42.1711 35.2282 41.2757 35.2282 40.1711V31.734C35.2282 30.6294 34.3328 29.734 33.2282 29.734H26.3567C25.2522 29.734 24.3567 28.8385 24.3567 27.734V16.9988C24.3567 15.2957 22.3301 14.3564 20.8219 15.1477Z" fill="white" stroke="white"/>
<path id="Ellipse 1" d="M35.4475 69.288C35.7277 70.5173 35.7269 71.6596 35.5209 72.5045C35.3067 73.3828 34.921 73.7821 34.5666 73.8581C34.2122 73.9341 33.6888 73.7297 33.1128 73.0208C32.5587 72.3389 32.0614 71.3034 31.7811 70.0741C31.5008 68.8448 31.5017 67.7026 31.7077 66.8577C31.9218 65.9793 32.3075 65.58 32.662 65.504C33.0164 65.428 33.5397 65.6324 34.1158 66.3413C34.6699 67.0233 35.1672 68.0587 35.4475 69.288Z" fill="white" stroke="white"/>
<path id="Vector 3" d="M21.2757 10.9062C17.3325 13.8296 14.653 13.6314 10.4521 10.3654C10.0485 10.0516 9.96132 9.47764 10.2425 9.05069L12.9755 4.90074L14.5327 2.53628C15.3229 1.33631 17.0834 1.33678 17.8736 2.53675L21.6845 8.32338C22.2401 9.16694 22.0871 10.3047 21.2757 10.9062Z" fill="white" stroke="white"/>
</g>
</svg>
